<svg width="8996" height="976" viewBox="0 0 8996 976" fill="none" xmlns="http://www.w3.org/2000/svg">
<rect width="8996" height="976" fill="#FEFCF9"/>
<path d="M8878.62 975.44C8868.35 975.44 8859.09 973.232 8850.83 968.816C8842.58 964.304 8836.1 958.112 8831.39 950.24C8826.69 942.272 8824.34 933.392 8824.34 923.6C8824.34 913.808 8826.69 904.976 8831.39 897.104C8836.1 889.136 8842.58 882.944 8850.83 878.528C8859.09 874.016 8868.35 871.76 8878.62 871.76C8888.9 871.76 8898.16 874.016 8906.42 878.528C8914.67 882.944 8921.15 889.088 8925.86 896.96C8930.56 904.832 8932.91 913.712 8932.91 923.6C8932.91 933.488 8930.56 942.368 8925.86 950.24C8921.15 958.112 8914.67 964.304 8906.42 968.816C8898.16 973.232 8888.9 975.44 8878.62 975.44ZM8878.62 959.024C8885.34 959.024 8891.39 957.536 8896.77 954.56C8902.14 951.488 8906.37 947.264 8909.44 941.888C8912.51 936.416 8914.05 930.32 8914.05 923.6C8914.05 916.88 8912.51 910.832 8909.44 905.456C8906.37 899.984 8902.14 895.76 8896.77 892.784C8891.39 889.712 8885.34 888.176 8878.62 888.176C8871.9 888.176 8865.86 889.712 8860.48 892.784C8855.1 895.76 8850.88 899.984 8847.81 905.456C8844.74 910.832 8843.2 916.88 8843.2 923.6C8843.2 930.32 8844.74 936.416 8847.81 941.888C8850.88 947.264 8855.1 951.488 8860.48 954.56C8865.86 957.536 8871.9 959.024 8878.62 959.024ZM8968.16 908.336C8973.35 900.272 8982.47 896.24 8995.52 896.24V913.376C8993.99 913.088 8992.59 912.944 8991.35 912.944C8984.34 912.944 8978.87 915.008 8974.93 919.136C8970.99 923.168 8969.03 929.024 8969.03 936.704V974H8951.03V897.104H8968.16V908.336Z" fill="black"/>
<g clip-path="url(#clip0)">
<path d="M577.117 66.4809V579.182C577.115 585.291 574.45 591.149 569.706 595.467C564.963 599.786 558.53 602.212 551.823 602.211H323.287C316.58 602.212 310.147 599.786 305.403 595.467C300.66 591.149 297.994 585.291 297.993 579.182V66.4809C297.993 63.4555 298.647 60.4598 299.918 57.6646C301.189 54.8695 303.052 52.3298 305.401 50.1906C307.75 48.0513 310.538 46.3544 313.607 45.1968C316.676 44.0392 319.965 43.4435 323.287 43.4437H357.485V47.4443C357.487 52.4749 359.681 57.299 363.587 60.8561C367.492 64.4132 372.789 66.4122 378.312 66.4137H494.537C500.06 66.4137 505.358 64.4151 509.264 60.8577C513.17 57.3002 515.364 52.4753 515.364 47.4443V43.4437H551.823C555.145 43.4435 558.434 44.0392 561.503 45.1968C564.572 46.3544 567.36 48.0513 569.709 50.1906C572.058 52.3298 573.921 54.8695 575.192 57.6646C576.463 60.4598 577.117 63.4555 577.117 66.4809V66.4809Z" fill="#F2F2F2"/>
<path d="M611.547 146.683H613.812C614.373 146.683 614.911 146.886 615.308 147.247C615.704 147.608 615.927 148.098 615.927 148.609V216.213C615.927 216.724 615.704 217.214 615.308 217.575C614.911 217.937 614.373 218.14 613.812 218.14H611.547" stroke="#3F3D56" stroke-miterlimit="10"/>
<path d="M293.091 114.227H291.453C291.085 114.227 290.732 114.094 290.472 113.857C290.212 113.62 290.066 113.298 290.066 112.963V91.9662C290.066 91.6312 290.212 91.3098 290.472 91.0729C290.732 90.8359 291.085 90.7028 291.453 90.7028H293.091" stroke="#3F3D56" stroke-miterlimit="10"/>
<path d="M292.833 174.717H291.436C291.021 174.717 290.623 174.567 290.33 174.3C290.037 174.033 289.872 173.671 289.872 173.293V135.196C289.872 135.009 289.913 134.823 289.991 134.651C290.07 134.478 290.185 134.321 290.33 134.189C290.475 134.056 290.648 133.951 290.837 133.88C291.027 133.808 291.23 133.771 291.436 133.771H293.091" stroke="#3F3D56" stroke-miterlimit="10"/>
<path d="M292.834 230.344H291.457C291.063 230.344 290.684 230.201 290.405 229.947C290.126 229.693 289.969 229.348 289.969 228.988V190.399C289.969 190.04 290.126 189.695 290.405 189.441C290.684 189.187 291.063 189.044 291.457 189.044H292.834" stroke="#3F3D56" stroke-miterlimit="10"/>
<path d="M578.609 12.9626H326.029C307.838 12.9626 293.091 26.3938 293.091 42.9621V572.444C293.091 589.012 307.838 602.443 326.029 602.443H578.609C596.801 602.443 611.547 589.012 611.547 572.444V42.9621C611.547 26.3938 596.801 12.9626 578.609 12.9626Z" stroke="#3F3D56" stroke-miterlimit="10"/>
<path d="M461.879 33.0875H422.1C420.804 33.0875 419.754 34.0439 419.754 35.2238V39.1757C419.754 40.3556 420.804 41.312 422.1 41.312H461.879C463.175 41.312 464.225 40.3556 464.225 39.1757V35.2238C464.225 34.0439 463.175 33.0875 461.879 33.0875Z" fill="#F2F2F2"/>
<path d="M476.071 41.8648C478.9 41.8648 481.193 39.7762 481.193 37.1998C481.193 34.6234 478.9 32.5348 476.071 32.5348C473.242 32.5348 470.949 34.6234 470.949 37.1998C470.949 39.7762 473.242 41.8648 476.071 41.8648Z" fill="#F2F2F2"/>
<path d="M463.725 30.5661H423.945C422.65 30.5661 421.6 31.5226 421.6 32.7024V36.6543C421.6 37.8342 422.65 38.7907 423.945 38.7907H463.725C465.02 38.7907 466.07 37.8342 466.07 36.6543V32.7024C466.07 31.5226 465.02 30.5661 463.725 30.5661Z" stroke="#3F3D56" stroke-miterlimit="10"/>
<path d="M477.917 39.3434C480.746 39.3434 483.039 37.2548 483.039 34.6784C483.039 32.102 480.746 30.0134 477.917 30.0134C475.088 30.0134 472.795 32.102 472.795 34.6784C472.795 37.2548 475.088 39.3434 477.917 39.3434Z" stroke="#3F3D56" stroke-miterlimit="10"/>
<path d="M591.881 51.3525V564.054C591.88 570.162 589.214 576.02 584.471 580.339C579.727 584.658 573.295 587.083 566.588 587.082H338.051C331.344 587.083 324.912 584.658 320.168 580.339C315.425 576.02 312.759 570.162 312.758 564.054V51.3525C312.758 48.3272 313.412 45.3314 314.683 42.5363C315.954 39.7411 317.817 37.2014 320.165 35.0622C322.514 32.9229 325.303 31.226 328.372 30.0684C331.44 28.9108 334.73 28.3151 338.051 28.3153H372.25V32.316C372.251 37.3465 374.446 42.1706 378.352 45.7277C382.257 49.2848 387.554 51.2838 393.077 51.2853H509.301C514.825 51.2853 520.123 49.2867 524.028 45.7293C527.934 42.1719 530.129 37.3469 530.129 32.316V28.3153H566.588C569.909 28.3151 573.199 28.9108 576.267 30.0684C579.336 31.226 582.125 32.9229 584.474 35.0622C586.822 37.2014 588.685 39.7411 589.956 42.5363C591.227 45.3314 591.881 48.3272 591.881 51.3525V51.3525Z" stroke="#3F3D56" stroke-miterlimit="10"/>
<path d="M349.346 77.3145H320.74V80.6764H349.346V77.3145Z" stroke="#3F3D56" stroke-miterlimit="10"/>
<path d="M349.346 83.1978H320.74V86.5596H349.346V83.1978Z" stroke="#3F3D56" stroke-miterlimit="10"/>
<path d="M349.346 89.0811H320.74V92.443H349.346V89.0811Z" stroke="#3F3D56" stroke-miterlimit="10"/>
<path d="M578.81 85.7192H577.963L577.644 85.4773C578.705 84.3246 579.286 82.8688 579.287 81.3649C579.278 80.1299 578.867 78.9251 578.107 77.9027C577.346 76.8802 576.27 76.0859 575.014 75.6201C573.759 75.1544 572.379 75.038 571.051 75.2857C569.723 75.5335 568.505 76.1342 567.551 77.012C566.597 77.8899 565.951 79.0054 565.693 80.2178C565.435 81.4302 565.577 82.6851 566.102 83.8239C566.626 84.9627 567.51 85.9343 568.64 86.6161C569.771 87.2979 571.098 87.6592 572.454 87.6544C574.1 87.6452 575.692 87.115 576.956 86.1548L577.274 86.3967V87.1707L582.571 92.0088L584.16 90.5574L578.81 85.7192ZM572.454 85.7192C571.507 85.7216 570.582 85.4683 569.794 84.9914C569.006 84.5144 568.391 83.8352 568.027 83.0398C567.663 82.2444 567.566 81.3685 567.749 80.523C567.932 79.6775 568.387 78.9005 569.055 78.2903C569.723 77.6801 570.575 77.2641 571.502 77.0951C572.43 76.9261 573.392 77.0116 574.266 77.3408C575.141 77.67 575.888 78.2281 576.414 78.9444C576.94 79.6608 577.221 80.5031 577.221 81.3649C577.224 81.9365 577.103 82.5032 576.865 83.0321C576.627 83.561 576.276 84.0418 575.833 84.4466C575.39 84.8514 574.863 85.1723 574.283 85.3907C573.703 85.6091 573.081 85.7208 572.454 85.7192V85.7192Z" stroke="#3F3D56" stroke-miterlimit="10"/>
<path d="M733.755 142.03C734.236 133.655 738.227 125.768 744.906 119.996C751.584 114.223 760.44 111.004 769.648 111.004C770.74 111.004 771.819 111.056 772.886 111.143C777.085 104.564 783.105 99.1035 790.346 95.3068C797.587 91.5101 805.794 89.51 814.149 89.5064C822.504 89.5028 830.714 91.4958 837.959 95.2863C845.204 99.0768 851.23 104.532 855.435 111.108C856.336 111.046 857.242 111.004 858.16 111.004C867.368 111.004 876.224 114.223 882.902 119.996C889.58 125.768 893.572 133.655 894.053 142.03" fill="#F2F2F2"/>
<path d="M741.241 139.511C741.722 131.137 745.714 123.25 752.392 117.477C759.071 111.705 767.927 108.486 777.134 108.486C778.226 108.486 779.305 108.538 780.372 108.625C784.571 102.046 790.592 96.5854 797.832 92.7886C805.073 88.9919 813.281 86.9919 821.636 86.9883C829.991 86.9847 838.201 88.9776 845.445 92.7681C852.69 96.5586 858.716 102.014 862.921 108.589C863.822 108.528 864.729 108.486 865.647 108.486C874.854 108.486 883.71 111.705 890.388 117.477C897.067 123.25 901.058 131.137 901.539 139.511" stroke="#3F3D56" stroke-miterlimit="10"/>
<path d="M637.786 327.773C638.267 319.398 642.258 311.511 648.937 305.738C655.615 299.966 664.471 296.747 673.678 296.747C674.771 296.747 675.849 296.799 676.917 296.886C681.116 290.307 687.136 284.846 694.377 281.05C701.617 277.253 709.825 275.253 718.18 275.249C726.535 275.246 734.745 277.239 741.99 281.029C749.234 284.82 755.26 290.275 759.466 296.851C760.366 296.789 761.273 296.747 762.191 296.747C771.398 296.747 780.254 299.966 786.933 305.738C793.611 311.511 797.603 319.398 798.084 327.773" fill="#F2F2F2"/>
<path d="M645.271 325.254C645.753 316.88 649.744 308.993 656.423 303.22C663.101 297.448 671.957 294.229 681.164 294.229C682.257 294.229 683.335 294.281 684.403 294.368C688.601 287.789 694.622 282.328 701.863 278.532C709.103 274.735 717.311 272.735 725.666 272.731C734.021 272.728 742.231 274.721 749.476 278.511C756.72 282.302 762.746 287.757 766.952 294.332C767.853 294.271 768.759 294.229 769.677 294.229C778.884 294.229 787.74 297.448 794.419 303.22C801.097 308.993 805.089 316.88 805.57 325.254" stroke="#3F3D56" stroke-miterlimit="10"/>
<path d="M37.0537 55.4616C37.5349 47.0872 41.5263 39.2003 48.2047 33.4276C54.8831 27.6548 63.7392 24.4365 72.9464 24.4363C74.0387 24.4363 75.1174 24.4882 76.185 24.5751C80.3836 17.9961 86.404 12.5356 93.6448 8.73884C100.886 4.9421 109.093 2.94206 117.448 2.93847C125.803 2.93487 134.013 4.92784 141.258 8.71834C148.502 12.5088 154.528 17.9642 158.734 24.5396C159.635 24.4779 160.541 24.4363 161.459 24.4363C170.666 24.4365 179.522 27.6548 186.201 33.4276C192.879 39.2003 196.871 47.0872 197.352 55.4616" fill="#F2F2F2"/>
<path d="M44.54 52.9434C45.0212 44.569 49.0126 36.6821 55.691 30.9093C62.3694 25.1366 71.2255 21.9183 80.4327 21.9181C81.5251 21.9181 82.6038 21.97 83.6713 22.0569C87.87 15.4779 93.8903 10.0174 101.131 6.22062C108.372 2.42389 116.58 0.423845 124.935 0.420247C133.29 0.416649 141.499 2.40962 148.744 6.20011C155.989 9.99061 162.015 15.446 166.22 22.0213C167.121 21.9597 168.028 21.9181 168.945 21.9181C178.153 21.9183 187.009 25.1366 193.687 30.9093C200.366 36.6821 204.357 44.569 204.838 52.9434" stroke="#3F3D56" stroke-miterlimit="10"/>
<path d="M530.168 163.05H333.703C327.308 163.05 322.125 167.772 322.125 173.596V263.446C322.125 269.27 327.308 273.992 333.703 273.992H530.168C536.563 273.992 541.747 269.27 541.747 263.446V173.596C541.747 167.772 536.563 163.05 530.168 163.05Z" fill="#F9A826"/>
<path d="M542.164 142.039H345.698C339.304 142.039 334.12 146.76 334.12 152.584V242.435C334.12 248.259 339.304 252.98 345.698 252.98H542.164C548.559 252.98 553.742 248.259 553.742 242.435V152.584C553.742 146.76 548.559 142.039 542.164 142.039Z" stroke="#3F3D56" stroke-miterlimit="10"/>
<path d="M409.298 222.32L428.668 240.502C429.091 240.89 429.596 241.195 430.153 241.399C430.71 241.603 431.306 241.7 431.906 241.687H431.964C432.564 241.7 433.161 241.603 433.718 241.399C434.274 241.195 434.78 240.89 435.202 240.502L454.572 222.32C455 221.955 455.341 221.515 455.574 221.026C455.807 220.537 455.928 220.009 455.928 219.476C455.928 218.942 455.807 218.415 455.574 217.926C455.341 217.436 455 216.996 454.572 216.632C453.687 215.877 452.519 215.457 451.306 215.457C450.092 215.457 448.924 215.877 448.039 216.632L436.561 227.56V199.385C436.508 198.3 435.997 197.275 435.135 196.525C434.274 195.775 433.127 195.356 431.935 195.356C430.743 195.356 429.597 195.775 428.735 196.525C427.873 197.275 427.363 198.3 427.31 199.385V227.56L415.832 216.632C414.946 215.877 413.778 215.457 412.565 215.457C411.352 215.457 410.184 215.877 409.298 216.632C408.87 216.996 408.529 217.436 408.296 217.926C408.063 218.415 407.943 218.942 407.943 219.476C407.943 220.009 408.063 220.537 408.296 221.026C408.529 221.515 408.87 221.955 409.298 222.32H409.298Z" fill="white"/>
<path d="M357.695 463.937H554.16C560.555 463.937 565.739 459.216 565.739 453.392V363.541C565.739 357.717 560.555 352.996 554.16 352.996H357.695C351.3 352.996 346.116 357.717 346.116 363.541V453.392C346.116 459.216 351.3 463.937 357.695 463.937Z" fill="#F9A826"/>
<path d="M345.699 442.926H542.164C548.559 442.926 553.743 438.204 553.743 432.38V342.53C553.743 336.705 548.559 331.984 542.164 331.984H345.699C339.304 331.984 334.12 336.705 334.12 342.53V432.38C334.12 438.204 339.304 442.926 345.699 442.926Z" stroke="#3F3D56" stroke-miterlimit="10"/>
<path d="M478.565 412.265C478.993 411.901 479.334 411.46 479.567 410.971C479.8 410.482 479.92 409.954 479.92 409.421C479.92 408.888 479.8 408.36 479.567 407.871C479.334 407.382 478.993 406.941 478.565 406.577C477.679 405.822 476.511 405.402 475.298 405.402C474.085 405.402 472.917 405.822 472.031 406.577L460.554 417.505V389.33C460.5 388.245 459.99 387.221 459.128 386.47C458.266 385.72 457.12 385.301 455.928 385.301C454.736 385.301 453.589 385.72 452.728 386.47C451.866 387.221 451.355 388.245 451.302 389.33V417.505L439.825 406.577C438.939 405.822 437.771 405.402 436.558 405.402C435.344 405.402 434.177 405.822 433.291 406.577C432.863 406.941 432.522 407.382 432.289 407.871C432.056 408.36 431.936 408.888 431.936 409.421C431.936 409.954 432.056 410.482 432.289 410.971C432.522 411.46 432.863 411.901 433.291 412.265L452.661 430.447C453.084 430.835 453.589 431.14 454.146 431.344C454.702 431.548 455.299 431.646 455.899 431.632H455.957C456.557 431.646 457.153 431.548 457.71 431.344C458.267 431.14 458.772 430.835 459.195 430.447L478.565 412.265H478.565Z" fill="white"/>
<path d="M200.16 643.039L200.159 643.04C200.159 643.04 199.869 643.187 199.374 643.416C199.641 643.29 199.903 643.165 200.16 643.039Z" fill="url(#paint0_linear)"/>
<path d="M90.1032 554.962C83.1799 573.09 91.2585 602.518 95.01 615.654C98.7573 628.793 99.9126 644.557 99.9126 644.557C114.625 646.658 125.299 644.029 125.299 644.029L119.242 616.97C123.569 600.942 119.242 558.114 119.242 558.114C119.242 558.114 129.047 541.562 129.912 516.339C130.764 491.511 137.484 483.487 137.696 483.238L137.701 483.234C151.547 489.804 169.145 560.219 169.145 560.219C167.704 577.295 169.435 603.57 175.203 617.758C178.702 626.769 180.173 636.33 179.53 645.87C181.547 647.423 184.351 647.687 187.38 647.241C195.618 646.027 205.493 639.564 205.493 639.564C205.493 639.564 202.321 562.844 200.01 559.955C197.704 557.066 200.01 540.514 200.01 540.514L196.263 513.714C196.263 513.714 196.839 468.258 191.356 460.376C186.627 453.57 185.536 441.609 185.324 438.468C185.294 437.971 185.281 437.695 185.281 437.695L176.934 428.588C176.934 428.588 96.161 423.07 90.1032 428.588C88.6147 429.943 87.6974 433.021 87.1522 436.899C85.4862 448.817 87.3945 468.258 87.3945 468.258C87.3945 468.258 89.8176 482.71 93.2792 497.422C95.3596 506.255 95.3596 515.389 93.2792 524.221C94.418 534.559 93.3394 544.999 90.1032 554.962V554.962Z" fill="#575A89"/>
<path d="M95.1532 670.174C98.7576 674.509 119.96 672.669 123.569 671.317C125.771 670.49 125.607 666.714 125.01 662.824C124.633 660.349 124.079 657.827 123.854 655.987C123.279 651.257 125.585 641.665 125.585 641.665C125.585 641.665 120.826 646.264 119.674 641.665C119.169 639.654 117.394 638.624 115.557 638.101C113.085 637.421 110.427 637.573 108.068 638.528C104.322 640.008 98.0688 643.165 99.1903 647.434C100.778 653.468 95.1531 662.028 95.1531 662.028C94.7162 662.529 94.362 663.085 94.1017 663.68C93.606 664.746 93.4419 665.916 93.6274 667.061C93.8128 668.207 94.3407 669.284 95.1532 670.174V670.174Z" fill="#CBCEDA"/>
<path opacity="0.1" d="M95.1531 670.174C98.7576 674.509 119.96 672.669 123.569 671.317C125.771 670.49 125.607 666.714 125.01 662.824C122.733 663.795 118.861 664.601 112.406 664.057C110.9 663.929 109.386 663.886 107.873 663.93C103.281 664.119 98.6813 664.035 94.1017 663.679C93.606 664.746 93.4419 665.916 93.6273 667.061C93.8128 668.207 94.3406 669.284 95.1531 670.174V670.174Z" fill="black"/>
<path opacity="0.1" d="M169.146 560.219C167.705 577.296 169.436 603.57 175.204 617.758C178.702 626.77 180.174 636.33 179.531 645.87C181.547 647.423 184.351 647.687 187.38 647.241C185.641 636.159 178.224 588.413 173.473 550.693C168.064 507.736 142.751 478.178 142.751 478.178L137.701 483.234C151.548 489.804 169.146 560.219 169.146 560.219Z" fill="black"/>
<path d="M103.807 284.081L107.329 299.845L124.577 326.25L145.853 317.974C145.853 317.974 174.771 290.387 156.597 286.446C154.42 286.022 152.364 285.188 150.561 283.998C146.995 281.547 145.87 277.984 145.853 274.497C145.994 270.586 146.999 266.742 148.808 263.194L111.596 252.553C113.132 257.006 114.029 261.621 114.266 266.283C114.551 275.513 110.787 280.061 107.697 282.229C106.548 283.074 105.225 283.704 103.807 284.081V284.081Z" fill="#FBBEBE"/>
<path opacity="0.1" d="M111.596 252.553C113.132 257.006 114.029 261.621 114.265 266.283C114.944 267.018 115.666 267.718 116.429 268.38C120.271 271.722 125.035 274.056 130.215 275.133C135.395 276.209 140.799 275.99 145.853 274.497C145.994 270.586 146.999 266.742 148.808 263.194L111.596 252.553Z" fill="black"/>
<path d="M107.329 248.218C107.33 253.518 109.055 258.699 112.288 263.106C115.522 267.512 120.117 270.947 125.493 272.975C130.869 275.003 136.785 275.534 142.493 274.5C148.2 273.466 153.442 270.914 157.557 267.166C161.672 263.418 164.474 258.643 165.61 253.445C166.745 248.247 166.162 242.859 163.936 237.962C161.709 233.065 157.938 228.88 153.099 225.935C148.261 222.99 142.572 221.419 136.753 221.418C132.885 221.405 129.053 222.09 125.476 223.432C121.9 224.774 118.65 226.747 115.915 229.238C113.18 231.73 111.013 234.689 109.54 237.946C108.066 241.204 107.315 244.695 107.329 248.218V248.218Z" fill="#FBBEBE"/>
<path opacity="0.1" d="M103.807 284.081L107.329 299.845L124.577 326.25L145.853 317.974C145.853 317.974 174.771 290.387 156.597 286.446C154.42 286.022 152.364 285.188 150.561 283.998C153.845 292.212 140.297 309.304 140.297 309.304C138.722 311.416 135.105 310.092 135.105 310.092C126.381 308.89 110.315 286.032 107.697 282.229C106.548 283.074 105.225 283.704 103.807 284.081V284.081Z" fill="black"/>
<path opacity="0.1" d="M87.1523 436.899C92.2713 437.96 120.613 443.678 131.357 442.247C143.183 440.671 166.177 439.623 166.177 439.623C166.177 439.623 180.82 440.344 185.324 438.468C185.294 437.971 185.281 437.696 185.281 437.696L176.934 428.588C176.934 428.588 96.1612 423.07 90.1034 428.588C88.6149 429.943 87.6976 433.021 87.1523 436.899Z" fill="black"/>
<path d="M140.299 310.092C140.299 310.092 155.518 290.887 149.784 283.412L175.492 293.014C175.492 293.014 190.966 291.306 196.55 312.338C197.445 315.834 197.767 319.432 197.506 323.013C197.303 326.185 197.776 331.768 201.743 338.993C208.089 350.554 206.647 377.09 193.666 379.717C180.685 382.345 176.069 381.031 176.069 381.031C176.069 381.031 177.8 429.112 185.3 434.629C192.8 440.147 166.177 438.833 166.177 438.833C166.177 438.833 143.183 439.884 131.356 441.461C119.529 443.037 86.3548 435.943 86.3548 435.943C86.3548 435.943 91.2588 415.712 92.9896 402.838C94.7204 389.964 98.759 362.551 98.759 362.551L69.3351 326.25C69.3351 326.25 64.1426 304.312 82.3162 294.591C100.49 284.869 107.329 282.479 107.329 282.479C107.329 282.479 125.587 309.567 135.106 310.88C135.106 310.88 138.722 312.204 140.299 310.092Z" fill="#3F3D56"/>
<path opacity="0.1" d="M174.05 317.711C174.05 317.711 174.338 326.382 172.607 329.797C170.877 333.213 164.53 352.13 164.53 352.13H178.954C178.954 352.13 171.165 344.511 171.742 340.832C172.319 337.154 174.05 317.711 174.05 317.711Z" fill="black"/>
<path d="M131.356 383.133C131.356 383.133 163.208 376.039 166.177 369.996C169.146 363.953 177.328 350.43 177.328 350.43L173.966 346.305L158.472 357.385C158.472 357.385 140.01 370.784 131.356 372.098C122.702 373.412 131.356 383.133 131.356 383.133Z" fill="#FBBEBE"/>
<path opacity="0.05" d="M131.356 383.133C131.356 383.133 163.208 376.039 166.177 369.996C169.146 363.953 177.328 350.43 177.328 350.43L173.966 346.305L158.472 357.385C158.472 357.385 140.01 370.784 131.356 372.098C122.702 373.412 131.356 383.133 131.356 383.133Z" fill="black"/>
<path d="M103.807 348.978V364.719H106.585C120.31 364.718 133.809 367.9 145.81 373.965L151.015 376.597L152.417 377.307L161.357 358.961L152.993 352.131C152.993 352.131 152.841 352.147 152.564 352.167C150.518 352.348 141.669 353.022 137.917 351.867C134.356 350.768 129.93 347.272 119.436 349.715C114.27 350.917 109.856 356.195 104.841 354.547L103.807 348.978Z" fill="#FBBEBE"/>
<path opacity="0.1" d="M75.9696 320.339L70.2002 326.25V340.57C70.2002 340.57 75.1042 385.76 90.6816 390.752C106.259 395.744 134.067 387.862 134.067 387.862C134.067 387.862 141.249 370.522 137.889 369.471C134.529 368.42 108.194 362.084 108.194 362.084C108.194 362.084 108.567 335.578 102.797 327.695C102.797 327.695 106.547 302.998 93.5663 302.473C80.5851 301.947 75.9696 320.339 75.9696 320.339Z" fill="black"/>
<path d="M75.1044 320.339L69.335 326.25V340.57C69.335 340.57 74.2389 385.76 89.8163 390.752C105.394 395.744 133.201 387.862 133.201 387.862C133.201 387.862 140.383 370.522 137.024 369.471C133.664 368.42 107.329 362.084 107.329 362.084C107.329 362.084 107.701 335.578 101.932 327.695C101.932 327.695 105.682 302.998 92.701 302.473C79.7199 301.947 75.1044 320.339 75.1044 320.339Z" fill="#3F3D56"/>
<path opacity="0.1" d="M115.399 259.607C115.148 257.879 115.374 256.121 116.057 254.492C116.87 252.923 118.774 251.686 120.631 252.084C123.101 252.608 124.166 255.536 126.585 256.238C128.623 256.829 130.851 255.513 131.825 253.775C132.798 252.04 132.824 250.007 132.829 248.06C132.833 245.865 132.839 243.67 132.846 241.474C132.85 239.086 132.928 236.505 134.546 234.629C136.558 232.292 141.284 231.271 144.438 231.366C146.539 231.386 148.555 232.126 150.085 233.439C151.777 234.747 153.728 235.709 156.03 235.366C156.988 235.233 157.885 234.857 158.618 234.279C159.351 233.702 159.889 232.947 160.171 232.103C160.18 232.076 160.188 232.048 160.193 232.02C157.739 229.073 154.641 226.62 151.095 224.817C147.549 223.014 143.632 221.898 139.59 221.542C135.548 221.185 131.468 221.594 127.608 222.743C123.748 223.893 120.191 225.758 117.161 228.22C114.131 230.683 111.693 233.691 110.002 237.054C108.311 240.417 107.402 244.062 107.333 247.76C107.265 251.459 108.037 255.13 109.603 258.543C111.168 261.956 113.492 265.037 116.429 267.592C115.924 264.95 115.58 262.284 115.399 259.607Z" fill="black"/>
<path d="M156.031 234.578C156.989 234.445 157.886 234.068 158.619 233.49C159.352 232.913 159.891 232.158 160.173 231.314C160.416 230.466 160.352 229.561 160.626 228.721C161.3 226.656 163.719 225.58 165.341 224.013C168.592 220.872 168.38 215.705 166.079 211.932C164.222 208.886 160.62 206.315 156.851 206.91C154.518 207.279 152.5 208.793 150.137 208.93C147.862 209.061 145.779 207.9 143.705 207.038C138.703 204.977 133.081 204.523 127.759 205.749C126.123 206.046 124.606 206.743 123.371 207.765C122.533 208.725 121.751 209.725 121.031 210.761C118.34 213.882 113.527 214.492 109.24 215.201C104.953 215.909 100.101 217.45 98.6916 221.205C97.7573 223.695 98.6636 226.4 99.2004 228.985C99.3773 229.515 99.3366 230.086 99.086 230.591C98.4173 231.599 96.7429 231.177 95.4778 231.419C93.0454 231.884 92.4202 234.738 92.3307 237C92.2282 239.589 92.151 242.179 92.0991 244.77C92.0298 245.737 92.1146 246.708 92.3508 247.653C92.8803 249.002 93.7163 250.234 94.8042 251.269L104.33 261.692C108.553 266.313 113.038 271.699 112.187 277.662C114.189 278.48 116.566 276.906 117.223 274.999C117.879 273.092 117.349 271.038 116.904 269.081C116.136 265.697 115.632 262.269 115.398 258.82C115.147 257.092 115.374 255.333 116.059 253.705C116.87 252.134 118.776 250.899 120.632 251.294C123.103 251.821 124.166 254.748 126.584 255.45C128.622 256.041 130.853 254.723 131.825 252.987C132.797 251.251 132.823 249.22 132.828 247.272L132.845 240.686C132.851 238.3 132.929 235.716 134.546 233.839C136.557 231.503 141.285 230.482 144.44 230.576C146.54 230.598 148.555 231.338 150.084 232.65C151.777 233.958 153.727 234.92 156.031 234.578Z" fill="#3F3D56"/>
<path opacity="0.1" d="M149.385 317.055L140.352 350.854C140.352 350.854 133.231 350.816 149.385 317.055Z" fill="black"/>
<path opacity="0.1" d="M118.519 311.406C118.519 311.406 130.346 329.048 125.731 347.289L123.527 347.435C123.527 347.435 127.462 338.993 118.519 311.406Z" fill="black"/>
<path opacity="0.1" d="M111.019 411.246C111.019 411.246 96.4962 406.871 95.4414 417.026C95.4414 417.026 98.1819 410.063 111.019 411.246Z" fill="black"/>
<path opacity="0.1" d="M152.991 352.918C152.991 352.918 155.876 371.31 150.684 378.666C150.684 378.666 161.246 382.607 176.069 381.819L177.8 352.918L152.991 352.918Z" fill="black"/>
<path opacity="0.1" d="M151.015 376.597L152.417 377.307L161.357 358.961L152.993 352.131H152.56C152.56 352.143 152.562 352.155 152.564 352.167C152.694 353.014 155.026 368.81 151.015 376.597Z" fill="black"/>
<path d="M152.991 352.13C152.991 352.13 155.876 370.522 150.684 377.878C150.684 377.878 161.246 381.819 176.069 381.031L186.165 352.13H152.991Z" fill="#3F3D56"/>
<path d="M176.097 665.71C176.265 667.021 176.906 668.243 177.92 669.185C178.934 670.127 180.263 670.736 181.698 670.915C189.533 671.981 208.401 668.816 213.167 670.881C219.225 673.509 243.166 671.669 244.321 669.044C244.484 668.518 244.531 667.969 244.46 667.426C244.389 666.884 244.201 666.359 243.906 665.884C243.087 664.281 241.733 662.956 240.038 662.096C239.486 661.811 238.905 661.576 238.303 661.395C233.794 660.023 225.274 657.115 222.976 654.068C222.976 654.068 212.36 645.608 209.33 641.032C208.76 640.132 207.957 639.375 206.989 638.826C206.022 638.277 204.921 637.954 203.784 637.886C201.256 637.783 198.442 638.94 197.291 643.983C197.291 643.983 183.453 651.175 179.706 644.87C179.706 644.87 179.13 660.44 176.832 663.089C176.828 663.093 176.824 663.1 176.819 663.104C176.516 663.474 176.296 663.894 176.172 664.341C176.048 664.789 176.022 665.254 176.097 665.71Z" fill="#CBCEDA"/>
<path opacity="0.1" d="M176.097 665.71C176.265 667.021 176.906 668.243 177.92 669.185C178.934 670.128 180.263 670.736 181.698 670.915C189.533 671.981 208.401 668.816 213.167 670.881C219.225 673.51 243.166 671.669 244.321 669.044C244.484 668.519 244.531 667.969 244.46 667.426C244.389 666.884 244.201 666.36 243.906 665.884C243.087 664.281 241.733 662.956 240.038 662.096C236.135 664.453 227.468 666.762 208.407 664.051C190.225 661.466 181.224 664.815 176.832 663.089C176.828 663.093 176.824 663.1 176.819 663.104C176.516 663.474 176.296 663.894 176.172 664.341C176.048 664.789 176.022 665.254 176.097 665.71V665.71Z" fill="black"/>
<g opacity="0.1">
<path opacity="0.1" d="M99.2273 229.354C99.2192 229.312 99.2113 229.27 99.2026 229.228C98.7938 227.259 98.173 225.222 98.3118 223.262C98.4975 224.872 98.795 226.47 99.2026 228.046C99.3222 228.474 99.3307 228.922 99.2273 229.354V229.354Z" fill="black"/>
<path opacity="0.1" d="M116.061 253.948C115.605 254.895 115.364 255.916 115.352 256.95C115.222 255.524 115.464 254.09 116.061 252.766C116.872 251.195 118.778 249.96 120.634 250.355C123.105 250.881 124.168 253.808 126.586 254.51C128.624 255.102 130.855 253.783 131.827 252.048C132.799 250.312 132.825 248.281 132.83 246.332C132.835 244.137 132.841 241.942 132.847 239.746C132.853 237.36 132.93 234.777 134.547 232.9C136.559 230.563 141.286 229.543 144.442 229.636C146.542 229.659 148.557 230.399 150.086 231.71C151.779 233.019 153.729 233.981 156.033 233.639C156.991 233.506 157.888 233.129 158.621 232.551C159.354 231.974 159.893 231.219 160.175 230.375C160.417 229.527 160.354 228.622 160.628 227.781C161.301 225.717 163.721 224.641 165.343 223.074C166.857 221.547 167.72 219.577 167.776 217.521C167.895 218.735 167.741 219.959 167.322 221.117C166.904 222.275 166.23 223.343 165.343 224.256C163.721 225.823 161.301 226.9 160.628 228.964C160.354 229.804 160.417 230.709 160.175 231.557C159.893 232.401 159.354 233.156 158.621 233.733C157.888 234.311 156.991 234.688 156.033 234.821C153.729 235.163 151.779 234.202 150.086 232.893C148.557 231.581 146.542 230.841 144.442 230.819C141.286 230.725 136.559 231.746 134.547 234.082C132.93 235.959 132.853 238.543 132.847 240.929C132.841 243.124 132.835 245.319 132.83 247.515C132.825 249.463 132.799 251.494 131.827 253.23C130.855 254.966 128.624 256.284 126.586 255.693C124.168 254.991 123.105 252.064 120.634 251.537C118.778 251.142 116.872 252.377 116.061 253.948Z" fill="black"/>
<path opacity="0.1" d="M92.3527 246.714C92.8823 248.063 93.7182 249.295 94.806 250.33C97.9812 253.804 101.156 257.278 104.332 260.753C108.341 265.14 112.584 270.218 112.274 275.823C111.985 270.685 108.058 266.012 104.332 261.935C101.156 258.461 97.9813 254.987 94.806 251.512C93.7182 250.477 92.8823 249.245 92.3527 247.896C92.1166 246.952 92.0318 245.981 92.101 245.014C92.1097 245.588 92.1942 246.159 92.3527 246.714V246.714Z" fill="black"/>
<path opacity="0.1" d="M117.225 274.06C117.379 273.603 117.475 273.131 117.51 272.654C117.592 273.525 117.496 274.403 117.225 275.242C116.569 277.149 114.191 278.723 112.189 277.905C112.244 277.523 112.277 277.14 112.288 276.755C114.269 277.484 116.579 275.936 117.225 274.06Z" fill="black"/>
</g>
<path opacity="0.1" d="M211.232 643.41C211.232 643.41 208.218 648.241 197.291 643.983Z" fill="black"/>
<path opacity="0.1" d="M120.707 643.733C120.707 643.733 111.281 653.838 99.4072 647.047Z" fill="black"/>
<path opacity="0.1" d="M93.2793 524.221C93.2793 524.221 99.9373 528.01 100.154 530.177C100.37 532.345 96.7165 528.601 96.7165 528.601L93.2793 524.221Z" fill="black"/>
<path opacity="0.1" d="M90.6519 553.272C92.9673 555.028 95.8463 556.051 98.8556 556.188C103.832 556.385 103.417 562.297 100.163 560.523C96.9084 558.75 90.6519 553.272 90.6519 553.272Z" fill="black"/>
<path opacity="0.1" d="M89.3848 557.064C89.3848 557.064 92.5813 571.361 95.1775 568.603Z" fill="black"/>
<path d="M12.6514 542.649C15.4468 543.574 18.44 543.896 21.3951 543.588C24.3502 543.28 27.1864 542.352 29.6802 540.875C32.174 539.399 34.2572 537.415 35.7657 535.08C37.2741 532.745 38.1665 530.123 38.3725 527.421C38.5785 524.718 38.0926 522.009 36.9529 519.507C35.8133 517.005 34.0511 514.778 31.8053 513.001C29.5594 511.225 26.8914 509.948 24.0113 509.272C21.1313 508.595 18.118 508.536 15.209 509.101L15.6897 518.104L11.0129 510.389C6.42292 512.353 2.87693 515.897 1.15423 520.241C0.542423 521.763 0.170497 523.356 0.0495358 524.973C-0.245693 528.766 0.824817 532.544 3.09884 535.734C5.37287 538.923 8.72646 541.351 12.6514 542.649V542.649Z" fill="#57B894"/>
<path d="M35.7918 647.071C34.1409 639.414 41.2947 632.626 48.361 628.214C55.4272 623.802 63.6838 619.467 66.0948 611.979C69.5598 601.218 59.2385 591.362 51.2051 582.864C45.245 576.557 40.1268 569.628 35.9574 562.224C34.2862 559.255 32.7502 556.151 32.3103 552.839C31.6769 548.069 33.3595 543.322 35.0546 538.772C40.7016 523.615 46.7392 508.585 53.1674 493.681" stroke="#3F3D56" stroke-miterlimit="10"/>
<path d="M13.442 540.331C16.2373 541.256 19.2305 541.578 22.1856 541.27C25.1407 540.962 27.977 540.034 30.4708 538.557C32.9646 537.081 35.0478 535.097 36.5562 532.762C38.0646 530.427 38.957 527.805 39.163 525.103C39.3691 522.4 38.8831 519.691 37.7435 517.189C36.6038 514.687 34.8416 512.46 32.5958 510.683C30.35 508.907 27.6819 507.63 24.8019 506.954C21.9218 506.277 18.9085 506.219 15.9996 506.783L16.4803 515.787L11.8035 508.071C7.21345 510.035 3.66746 513.579 1.94475 517.923C1.33295 519.445 0.961027 521.038 0.840062 522.655C0.544837 526.448 1.61535 530.226 3.88937 533.416C6.1634 536.605 9.51699 539.033 13.442 540.331V540.331Z" stroke="#3F3D56" stroke-miterlimit="10"/>
<path d="M33.4446 490.572C34.5416 487.815 36.3828 485.354 38.7986 483.416C41.2143 481.477 44.1269 480.124 47.2678 479.48L48.8491 488.039L51.7808 479.05C55.8513 479.105 59.7974 480.336 63.0492 482.567C66.3009 484.798 68.6903 487.912 69.8721 491.46C71.054 495.008 70.9673 498.807 69.6244 502.307C68.2816 505.807 65.7522 508.828 62.4014 510.934C59.0506 513.04 55.0517 514.121 50.9822 514.022C46.9127 513.922 42.9831 512.648 39.7608 510.382C36.5385 508.116 34.1901 504.976 33.0548 501.415C31.9195 497.855 32.056 494.058 33.4446 490.572H33.4446Z" fill="#57B894"/>
<path d="M34.4993 487.482C35.5963 484.725 37.4375 482.264 39.8533 480.325C42.269 478.387 45.1816 477.033 48.3226 476.389L49.9038 484.949L52.8355 475.959C56.906 476.014 60.8521 477.246 64.1039 479.477C67.3557 481.707 69.745 484.822 70.9268 488.37C72.1087 491.918 72.022 495.716 70.6791 499.217C69.3363 502.717 66.8069 505.738 63.4561 507.844C60.1053 509.949 56.1064 511.03 52.0369 510.931C47.9674 510.832 44.0378 509.557 40.8155 507.292C37.5931 505.026 35.2448 501.886 34.1095 498.325C32.9742 494.764 33.1107 490.967 34.4993 487.482H34.4993Z" stroke="#3F3D56" stroke-miterlimit="10"/>
<path d="M47.834 583.037C52.2672 584.502 57.1371 584.429 61.5155 582.834C65.8939 581.238 69.4746 578.231 71.5751 574.386C73.6757 570.54 74.1492 566.125 72.9054 561.982C71.6616 557.839 68.7874 554.258 64.8308 551.921L62.5781 558.829L60.9807 550.169C60.9649 550.162 60.9486 550.156 60.9318 550.152C58.5607 549.367 56.0429 549.015 53.5225 549.117C51.0021 549.219 48.5284 549.772 46.2427 550.744C43.957 551.717 41.9041 553.09 40.2014 554.786C38.4987 556.482 37.1794 558.466 36.3191 560.626C35.4588 562.786 35.0742 565.08 35.1873 567.375C35.3004 569.671 35.909 571.923 36.9784 574.005C38.0477 576.086 39.5568 577.955 41.4195 579.504C43.2821 581.054 45.4618 582.255 47.834 583.037H47.834Z" fill="#57B894"/>
<path d="M48.7476 579.907C53.1808 581.371 58.0507 581.299 62.4291 579.703C66.8075 578.108 70.3882 575.101 72.4887 571.255C74.5893 567.41 75.0628 562.995 73.819 558.852C72.5752 554.709 69.701 551.127 65.7444 548.79L63.4917 555.698L61.8943 547.038C61.8785 547.032 61.8621 547.026 61.8454 547.021C59.4742 546.237 56.9565 545.885 54.4361 545.987C51.9157 546.088 49.4419 546.641 47.1562 547.614C44.8706 548.587 42.8177 549.96 41.115 551.656C39.4122 553.351 38.093 555.336 37.2327 557.496C36.3723 559.656 35.9877 561.949 36.1009 564.245C36.214 566.54 36.8226 568.793 37.8919 570.874C38.9613 572.955 40.4704 574.824 42.3331 576.374C44.1957 577.924 46.3754 579.124 48.7476 579.907H48.7476Z" stroke="#3F3D56" stroke-miterlimit="10"/>
<path d="M27.8399 612.086C28.6022 616.036 30.8326 619.628 34.1571 622.258C37.4816 624.888 41.698 626.398 46.0992 626.533C50.5005 626.668 54.8188 625.42 58.3301 622.999C61.8414 620.579 64.332 617.132 65.3843 613.237C66.4366 609.343 65.9866 605.237 64.1097 601.608C62.2328 597.98 59.0432 595.05 55.0759 593.309C51.1085 591.568 46.6046 591.123 42.3195 592.048C38.0345 592.973 34.2288 595.211 31.5408 598.388L40.0975 610.118L28.4059 603.892C27.4994 606.543 27.3053 609.353 27.8399 612.086V612.086Z" fill="#57B894"/>
<path d="M28.631 609.768C29.3932 613.718 31.6236 617.31 34.9481 619.94C38.2726 622.57 42.489 624.08 46.8903 624.215C51.2915 624.35 55.6098 623.102 59.1211 620.682C62.6324 618.261 65.123 614.814 66.1753 610.919C67.2277 607.025 66.7776 602.919 64.9008 599.291C63.0239 595.662 59.8343 592.732 55.8669 590.991C51.8995 589.25 47.3956 588.805 43.1106 589.73C38.8255 590.655 35.0198 592.893 32.3319 596.07L40.8885 607.8L29.1969 601.575C28.2904 604.225 28.0963 607.035 28.631 609.768V609.768Z" stroke="#3F3D56" stroke-miterlimit="10"/>
<path d="M9.12793 657.442C9.12793 657.442 26.0753 651.393 31.1828 648.081C36.2903 644.768 57.252 640.813 58.5191 646.126C59.7861 651.438 83.9877 672.548 64.8543 672.689C45.7208 672.829 20.3967 675.548 15.299 672.72C10.2014 669.891 9.12793 657.442 9.12793 657.442Z" fill="#656380"/>
<path opacity="0.2" d="M65.1958 670.839C46.0623 670.98 20.7381 673.698 15.6405 670.87C11.7583 668.716 10.2113 660.988 9.69369 657.422C9.33523 657.436 9.12793 657.442 9.12793 657.442C9.12793 657.442 10.2013 669.891 15.299 672.719C20.3967 675.548 45.7209 672.829 64.8543 672.688C70.3774 672.648 72.2851 670.858 72.1804 668.207C71.4131 669.809 69.3067 670.809 65.1958 670.839Z" fill="black"/>
<path d="M46.8921 671.999H297.889" stroke="#3F3D56" stroke-miterlimit="10"/>
</g>
<defs>
<linearGradient id="paint0_linear" x1="199.767" y1="643.416" x2="199.767" y2="643.039" gradientUnits="userSpaceOnUse">
<stop stop-color="#808080" stop-opacity="0.25"/>
<stop offset="0.53514" stop-color="#808080" stop-opacity="0.12"/>
<stop offset="1" stop-color="#808080" stop-opacity="0.1"/>
</linearGradient>
<clipPath id="clip0">
<rect width="902" height="674" fill="white"/>
</clipPath>
</defs>
</svg>
