<svg width="978" height="802" viewBox="0 0 978 802" fill="none" xmlns="http://www.w3.org/2000/svg">
<rect width="978" height="802" fill="white"/>
<g clip-path="url(#clip0)">
<path d="M625.409 79.1001V689.12C625.407 696.388 622.519 703.358 617.379 708.497C612.238 713.635 605.267 716.521 597.999 716.52H350.339C343.071 716.521 336.1 713.635 330.959 708.497C325.819 703.358 322.93 696.388 322.929 689.12V79.1001C322.929 75.5004 323.637 71.936 325.015 68.6103C326.392 65.2847 328.411 62.2629 330.956 59.7176C333.502 57.1722 336.524 55.1532 339.849 53.7759C343.175 52.3985 346.739 51.6897 350.339 51.6901H387.399V56.4501C387.401 62.4355 389.779 68.1752 394.011 72.4076C398.244 76.6399 403.984 79.0184 409.969 79.0201H535.919C541.905 79.0201 547.646 76.6422 551.878 72.4095C556.111 68.1768 558.489 62.436 558.489 56.4501V51.6901H597.999C601.599 51.6897 605.163 52.3985 608.489 53.7759C611.814 55.1532 614.836 57.1722 617.381 59.7176C619.927 62.2629 621.946 65.2847 623.323 68.6103C624.7 71.936 625.409 75.5004 625.409 79.1001V79.1001Z" fill="#F2F2F2"/>
<path d="M662.721 174.526H665.175C665.783 174.526 666.366 174.767 666.796 175.197C667.225 175.627 667.467 176.21 667.467 176.817V257.254C667.467 257.862 667.225 258.445 666.796 258.875C666.366 259.305 665.783 259.546 665.175 259.546H662.721" stroke="#3F3D56" stroke-miterlimit="10"/>
<path d="M317.616 135.909H315.842C315.443 135.909 315.061 135.751 314.779 135.469C314.497 135.187 314.338 134.804 314.338 134.406V109.423C314.338 109.024 314.497 108.642 314.779 108.36C315.061 108.078 315.443 107.92 315.842 107.92H317.616" stroke="#3F3D56" stroke-miterlimit="10"/>
<path d="M317.337 207.882H315.823C315.373 207.882 314.942 207.703 314.624 207.385C314.307 207.067 314.128 206.636 314.128 206.187V160.858C314.128 160.635 314.172 160.415 314.257 160.209C314.342 160.004 314.467 159.817 314.624 159.66C314.782 159.502 314.968 159.377 315.174 159.292C315.38 159.207 315.6 159.163 315.823 159.163H317.616" stroke="#3F3D56" stroke-miterlimit="10"/>
<path d="M317.337 274.067H315.846C315.418 274.067 315.008 273.897 314.706 273.594C314.403 273.292 314.233 272.882 314.233 272.454V226.54C314.233 226.113 314.403 225.702 314.706 225.4C315.008 225.098 315.418 224.928 315.846 224.928H317.337" stroke="#3F3D56" stroke-miterlimit="10"/>
<path d="M627.027 15.4231H353.31C333.597 15.4231 317.616 31.4038 317.616 51.117V681.103C317.616 700.816 333.597 716.797 353.31 716.797H627.027C646.74 716.797 662.721 700.816 662.721 681.103V51.117C662.721 31.4038 646.74 15.4231 627.027 15.4231Z" stroke="#F59E0B" stroke-miterlimit="10"/>
<path d="M500.529 39.368H457.42C456.016 39.368 454.878 40.5061 454.878 41.9099V46.6119C454.878 48.0157 456.016 49.1538 457.42 49.1538H500.529C501.933 49.1538 503.071 48.0157 503.071 46.6119V41.9099C503.071 40.5061 501.933 39.368 500.529 39.368Z" fill="#F2F2F2"/>
<path d="M515.908 49.8114C518.973 49.8114 521.458 47.3264 521.458 44.2609C521.458 41.1955 518.973 38.7104 515.908 38.7104C512.842 38.7104 510.357 41.1955 510.357 44.2609C510.357 47.3264 512.842 49.8114 515.908 49.8114Z" fill="#F2F2F2"/>
<path d="M502.529 36.368H459.42C458.016 36.368 456.878 37.5061 456.878 38.9099V43.6119C456.878 45.0157 458.016 46.1538 459.42 46.1538H502.529C503.933 46.1538 505.071 45.0157 505.071 43.6119V38.9099C505.071 37.5061 503.933 36.368 502.529 36.368Z" stroke="#3F3D56" stroke-miterlimit="10"/>
<path d="M517.908 46.8114C520.973 46.8114 523.458 44.3264 523.458 41.2609C523.458 38.1955 520.973 35.7104 517.908 35.7104C514.842 35.7104 512.357 38.1955 512.357 41.2609C512.357 44.3264 514.842 46.8114 517.908 46.8114Z" stroke="#3F3D56" stroke-miterlimit="10"/>
<path d="M641.409 61.1001V671.12C641.407 678.388 638.519 685.358 633.379 690.497C628.238 695.635 621.267 698.521 613.999 698.52H366.339C359.071 698.521 352.1 695.635 346.959 690.497C341.819 685.358 338.93 678.388 338.929 671.12V61.1001C338.929 57.5004 339.637 53.936 341.015 50.6103C342.392 47.2847 344.411 44.2629 346.956 41.7176C349.502 39.1722 352.524 37.1532 355.849 35.7759C359.175 34.3985 362.739 33.6897 366.339 33.6901H403.399V38.4501C403.401 44.4355 405.779 50.1752 410.011 54.4076C414.244 58.6399 419.984 61.0184 425.969 61.0201H551.919C557.905 61.0201 563.646 58.6422 567.878 54.4095C572.111 50.1768 574.489 44.436 574.489 38.4501V33.6901H613.999C617.599 33.6897 621.163 34.3985 624.489 35.7759C627.814 37.1532 630.836 39.1722 633.381 41.7176C635.927 44.2629 637.946 47.2847 639.323 50.6103C640.7 53.936 641.409 57.5004 641.409 61.1001V61.1001Z" stroke="#3F3D56" stroke-miterlimit="10"/>
<path d="M378.579 91.9901H347.579V95.9901H378.579V91.9901Z" stroke="#F59E0B" stroke-miterlimit="10"/>
<path d="M378.579 98.9901H347.579V102.99H378.579V98.9901Z" stroke="#F59E0B" stroke-miterlimit="10"/>
<path d="M378.579 105.99H347.579V109.99H378.579V105.99Z" stroke="#F59E0B" stroke-miterlimit="10"/>
<path d="M627.244 101.99H626.326L625.981 101.702C627.13 100.331 627.76 98.5986 627.761 96.8092C627.751 95.3399 627.306 93.9064 626.482 92.6898C625.658 91.4733 624.492 90.5282 623.131 89.974C621.77 89.4199 620.275 89.2814 618.836 89.5762C617.396 89.8709 616.076 90.5857 615.043 91.6301C614.009 92.6746 613.309 94.0019 613.029 95.4445C612.749 96.887 612.904 98.38 613.472 99.735C614.041 101.09 614.998 102.246 616.223 103.057C617.448 103.868 618.886 104.298 620.356 104.293C622.14 104.282 623.864 103.651 625.235 102.508L625.579 102.796V103.717L631.319 109.474L633.041 107.747L627.244 101.99ZM620.356 101.99C619.33 101.993 618.327 101.692 617.473 101.124C616.619 100.557 615.953 99.7485 615.559 98.8021C615.164 97.8556 615.06 96.8135 615.258 95.8075C615.456 94.8016 615.948 93.8771 616.672 93.151C617.396 92.425 618.319 91.9301 619.325 91.729C620.33 91.5279 621.373 91.6296 622.32 92.0213C623.268 92.413 624.078 93.077 624.648 93.9294C625.217 94.7817 625.522 95.7839 625.522 96.8092C625.526 97.4894 625.395 98.1636 625.136 98.7929C624.878 99.4223 624.498 99.9942 624.018 100.476C623.538 100.958 622.967 101.339 622.338 101.599C621.71 101.859 621.036 101.992 620.356 101.99V101.99Z" stroke="#3F3D56" stroke-miterlimit="10"/>
<path d="M795.154 168.989C795.676 159.025 800.001 149.641 807.239 142.773C814.476 135.904 824.073 132.075 834.051 132.075C835.234 132.075 836.403 132.136 837.56 132.24C842.11 124.412 848.634 117.915 856.481 113.398C864.328 108.88 873.222 106.501 882.276 106.496C891.33 106.492 900.227 108.863 908.078 113.373C915.929 117.883 922.459 124.374 927.017 132.198C927.993 132.124 928.975 132.075 929.97 132.075C939.948 132.075 949.545 135.904 956.782 142.773C964.019 149.641 968.345 159.025 968.866 168.989" fill="#F2F2F2"/>
<path d="M803.267 165.993C803.788 156.029 808.114 146.645 815.351 139.776C822.588 132.908 832.185 129.079 842.163 129.078C843.347 129.078 844.516 129.14 845.673 129.244C850.223 121.416 856.747 114.919 864.593 110.401C872.44 105.884 881.335 103.504 890.389 103.5C899.443 103.496 908.34 105.867 916.191 110.377C924.041 114.887 930.572 121.378 935.129 129.201C936.105 129.128 937.088 129.078 938.082 129.078C948.06 129.079 957.657 132.908 964.894 139.776C972.132 146.645 976.457 156.029 976.979 165.993" stroke="#3F3D56" stroke-miterlimit="10"/>
<path d="M691.154 389.989C691.676 380.025 696.001 370.641 703.239 363.773C710.476 356.904 720.073 353.075 730.051 353.075C731.234 353.075 732.403 353.136 733.56 353.24C738.11 345.412 744.634 338.915 752.481 334.398C760.328 329.88 769.222 327.5 778.276 327.496C787.33 327.492 796.227 329.863 804.078 334.373C811.929 338.883 818.459 345.374 823.017 353.198C823.993 353.124 824.975 353.075 825.97 353.075C835.948 353.075 845.545 356.904 852.782 363.773C860.019 370.641 864.345 380.025 864.866 389.989" fill="#F2F2F2"/>
<path d="M699.267 386.993C699.788 377.029 704.114 367.645 711.351 360.776C718.588 353.908 728.185 350.079 738.163 350.078C739.347 350.078 740.516 350.14 741.673 350.244C746.223 342.416 752.747 335.919 760.593 331.401C768.44 326.884 777.335 324.504 786.389 324.5C795.443 324.496 804.34 326.867 812.191 331.377C820.041 335.887 826.572 342.378 831.129 350.201C832.105 350.128 833.088 350.078 834.082 350.078C844.06 350.079 853.657 353.908 860.894 360.776C868.132 367.645 872.457 377.029 872.979 386.993" stroke="#3F3D56" stroke-miterlimit="10"/>
<path d="M40.1545 65.9891C40.6759 56.0251 45.0013 46.6411 52.2386 39.7726C59.4758 32.9041 69.0729 29.0749 79.0506 29.0747C80.2344 29.0747 81.4033 29.1364 82.5602 29.2398C87.1102 21.412 93.6343 14.915 101.481 10.3976C109.328 5.88015 118.222 3.50047 127.276 3.49619C136.33 3.49191 145.227 5.86318 153.078 10.3732C160.929 14.8832 167.459 21.374 172.017 29.1975C172.993 29.1242 173.975 29.0747 174.97 29.0747C184.948 29.0749 194.545 32.9041 201.782 39.7726C209.019 46.6411 213.345 56.0251 213.866 65.9891" fill="#F2F2F2"/>
<path d="M48.2669 62.9929C48.7884 53.0289 53.1138 43.6449 60.351 36.7764C67.5882 29.9079 77.1854 26.0787 87.163 26.0785C88.3468 26.0785 89.5157 26.1402 90.6726 26.2436C95.2226 18.4158 101.747 11.9188 109.593 7.40138C117.44 2.88397 126.335 0.504287 135.389 0.500006C144.443 0.495725 153.34 2.86699 161.191 7.37699C169.041 11.887 175.572 18.3778 180.129 26.2013C181.105 26.128 182.088 26.0785 183.082 26.0785C193.06 26.0787 202.657 29.9079 209.894 36.7764C217.132 43.6449 221.457 53.0289 221.979 62.9929" stroke="#3F3D56" stroke-miterlimit="10"/>
<path d="M574.532 194H361.626C354.697 194 349.079 199.618 349.079 206.547V313.453C349.079 320.382 354.697 326 361.626 326H574.532C581.461 326 587.079 320.382 587.079 313.453V206.547C587.079 199.618 581.461 194 574.532 194Z" fill="#F59E0B"/>
<path d="M587.532 169H374.626C367.697 169 362.079 174.618 362.079 181.547V288.453C362.079 295.382 367.697 301 374.626 301H587.532C594.461 301 600.079 295.382 600.079 288.453V181.547C600.079 174.618 594.461 169 587.532 169Z" stroke="#3F3D56" stroke-miterlimit="10"/>
<path d="M443.547 264.519L464.539 286.153C464.997 286.614 465.544 286.978 466.147 287.22C466.751 287.463 467.398 287.579 468.048 287.563H468.11C468.76 287.579 469.407 287.463 470.01 287.22C470.614 286.978 471.161 286.614 471.619 286.153L492.61 264.519C493.074 264.086 493.443 263.562 493.696 262.98C493.949 262.398 494.079 261.77 494.079 261.136C494.079 260.501 493.949 259.873 493.696 259.291C493.443 258.709 493.074 258.185 492.61 257.752C491.65 256.854 490.385 256.354 489.07 256.354C487.755 256.354 486.49 256.854 485.53 257.752L473.092 270.754V237.231C473.034 235.94 472.481 234.722 471.547 233.829C470.613 232.936 469.371 232.437 468.079 232.437C466.787 232.437 465.545 232.936 464.611 233.829C463.677 234.722 463.124 235.94 463.066 237.231V270.754L450.628 257.752C449.668 256.854 448.403 256.354 447.088 256.354C445.773 256.354 444.508 256.854 443.548 257.752C443.084 258.185 442.715 258.709 442.462 259.291C442.209 259.873 442.079 260.501 442.079 261.136C442.079 261.77 442.209 262.398 442.462 262.98C442.715 263.562 443.084 264.086 443.548 264.519H443.547Z" fill="white"/>
<path d="M387.626 552H600.532C607.461 552 613.079 546.382 613.079 539.453V432.547C613.079 425.618 607.461 420 600.532 420H387.626C380.696 420 375.079 425.618 375.079 432.547V539.453C375.079 546.382 380.696 552 387.626 552Z" fill="#F59E0B"/>
<path d="M374.626 527H587.532C594.461 527 600.079 521.382 600.079 514.453V407.547C600.079 400.618 594.461 395 587.532 395H374.626C367.696 395 362.079 400.618 362.079 407.547V514.453C362.079 521.382 367.696 527 374.626 527Z" stroke="#3F3D56" stroke-miterlimit="10"/>
<path d="M518.61 490.519C519.074 490.086 519.443 489.562 519.696 488.98C519.949 488.398 520.079 487.77 520.079 487.136C520.079 486.501 519.949 485.873 519.696 485.291C519.443 484.709 519.074 484.185 518.61 483.752C517.65 482.854 516.385 482.354 515.07 482.354C513.755 482.354 512.49 482.854 511.53 483.752L499.092 496.754V463.231C499.034 461.94 498.481 460.721 497.547 459.829C496.613 458.936 495.371 458.437 494.079 458.437C492.787 458.437 491.545 458.936 490.611 459.829C489.677 460.721 489.124 461.94 489.066 463.231V496.754L476.628 483.752C475.668 482.854 474.403 482.354 473.088 482.354C471.773 482.354 470.508 482.854 469.548 483.752C469.084 484.185 468.715 484.709 468.462 485.291C468.209 485.873 468.079 486.501 468.079 487.136C468.079 487.77 468.209 488.398 468.462 488.98C468.715 489.562 469.084 490.086 469.548 490.519L490.539 512.153C490.997 512.614 491.544 512.978 492.148 513.22C492.751 513.463 493.398 513.579 494.048 513.563H494.11C494.76 513.579 495.407 513.463 496.01 513.22C496.614 512.978 497.161 512.614 497.619 512.153L518.61 490.519H518.61Z" fill="white"/>
<path d="M216.909 765.098L216.908 765.1C216.908 765.1 216.594 765.275 216.057 765.547C216.346 765.397 216.63 765.248 216.909 765.098Z" fill="url(#paint0_linear)"/>
<path d="M97.643 660.302C90.1404 681.872 98.895 716.886 102.96 732.515C107.021 748.148 108.273 766.905 108.273 766.905C124.216 769.404 135.784 766.277 135.784 766.277L129.22 734.081C133.909 715.01 129.22 664.054 129.22 664.054C129.22 664.054 139.845 644.359 140.783 614.349C141.707 584.807 148.989 575.26 149.219 574.965L149.223 574.96C164.229 582.777 183.299 666.558 183.299 666.558C181.738 686.876 183.613 718.138 189.864 735.019C193.655 745.741 195.25 757.116 194.553 768.466C196.738 770.314 199.777 770.628 203.059 770.098C211.987 768.654 222.688 760.964 222.688 760.964C222.688 760.964 219.251 669.681 216.747 666.243C214.248 662.806 216.747 643.112 216.747 643.112L212.686 611.226C212.686 611.226 213.31 557.141 207.369 547.763C202.243 539.665 201.062 525.434 200.832 521.696C200.799 521.105 200.785 520.777 200.785 520.777L191.74 509.941C191.74 509.941 104.208 503.376 97.643 509.941C96.0299 511.554 95.0359 515.216 94.445 519.83C92.6397 534.01 94.7077 557.141 94.7077 557.141C94.7077 557.141 97.3335 574.336 101.085 591.841C103.339 602.35 103.339 613.218 101.085 623.727C102.319 636.027 101.15 648.449 97.643 660.302V660.302Z" fill="#575A89"/>
<path d="M103.115 797.384C107.021 802.542 129.998 800.353 133.909 798.744C136.296 797.759 136.117 793.267 135.47 788.639C135.062 785.694 134.462 782.693 134.218 780.503C133.595 774.876 136.094 763.463 136.094 763.463C136.094 763.463 130.936 768.935 129.688 763.463C129.141 761.071 127.217 759.845 125.226 759.222C122.547 758.414 119.667 758.595 117.111 759.731C113.051 761.492 106.275 765.248 107.49 770.328C109.211 777.507 103.115 787.692 103.115 787.692C102.642 788.288 102.258 788.95 101.976 789.657C101.439 790.925 101.261 792.317 101.462 793.68C101.663 795.043 102.235 796.325 103.115 797.384V797.384Z" fill="#F59E0B"/>
<path opacity="0.1" d="M103.115 797.384C107.021 802.542 129.998 800.353 133.909 798.744C136.296 797.759 136.117 793.267 135.47 788.639C133.004 789.794 128.807 790.753 121.812 790.106C120.179 789.953 118.539 789.903 116.899 789.955C111.924 790.179 106.939 790.079 101.976 789.657C101.439 790.925 101.261 792.317 101.462 793.68C101.663 795.043 102.235 796.325 103.115 797.384V797.384Z" fill="black"/>
<path opacity="0.1" d="M183.299 666.558C181.738 686.876 183.613 718.138 189.864 735.019C193.655 745.741 195.25 757.116 194.553 768.466C196.738 770.314 199.777 770.628 203.059 770.098C201.174 756.912 193.137 700.104 187.988 655.224C182.127 604.112 154.696 568.944 154.696 568.944L149.223 574.96C164.229 582.777 183.299 666.558 183.299 666.558Z" fill="black"/>
<path d="M112.493 338.004L116.31 356.761L135.001 388.178L158.058 378.331C158.058 378.331 189.395 345.507 169.701 340.818C167.341 340.313 165.113 339.321 163.16 337.906C159.296 334.989 158.076 330.75 158.058 326.6C158.211 321.948 159.3 317.374 161.26 313.152L120.934 300.491C122.599 305.789 123.571 311.281 123.827 316.828C124.137 327.81 120.057 333.221 116.709 335.8C115.463 336.807 114.03 337.556 112.493 338.004V338.004Z" fill="#FBBEBE"/>
<path opacity="0.1" d="M120.934 300.491C122.599 305.789 123.571 311.281 123.827 316.828C124.562 317.702 125.345 318.535 126.172 319.323C130.336 323.3 135.498 326.076 141.111 327.357C146.725 328.638 152.581 328.377 158.058 326.6C158.211 321.948 159.3 317.374 161.26 313.152L120.934 300.491Z" fill="black"/>
<path d="M116.31 295.333C116.311 301.639 118.181 307.804 121.685 313.047C125.188 318.29 130.168 322.377 135.994 324.79C141.82 327.203 148.231 327.835 154.416 326.604C160.601 325.374 166.282 322.337 170.741 317.878C175.201 313.419 178.237 307.738 179.468 301.553C180.698 295.368 180.067 288.957 177.653 283.131C175.24 277.305 171.154 272.325 165.91 268.821C160.667 265.318 154.503 263.447 148.197 263.447C144.005 263.432 139.851 264.246 135.976 265.843C132.1 267.439 128.579 269.788 125.615 272.752C122.651 275.716 120.303 279.237 118.706 283.113C117.109 286.988 116.295 291.142 116.31 295.333V295.333Z" fill="#FBBEBE"/>
<path opacity="0.1" d="M112.493 338.004L116.31 356.761L135.001 388.178L158.058 378.331C158.058 378.331 189.395 345.507 169.701 340.818C167.341 340.313 165.113 339.321 163.16 337.906C166.719 347.678 152.037 368.015 152.037 368.015C150.33 370.528 146.41 368.953 146.41 368.953C136.957 367.522 119.546 340.325 116.709 335.8C115.463 336.807 114.03 337.556 112.493 338.004V338.004Z" fill="black"/>
<path opacity="0.1" d="M94.445 519.83C99.9923 521.091 130.706 527.895 142.349 526.193C155.165 524.318 180.083 523.07 180.083 523.07C180.083 523.07 195.951 523.928 200.832 521.696C200.799 521.105 200.785 520.777 200.785 520.777L191.74 509.941C191.74 509.941 104.208 503.376 97.643 509.941C96.0299 511.554 95.0358 515.216 94.445 519.83Z" fill="black"/>
<path d="M152.039 368.953C152.039 368.953 168.532 346.103 162.317 337.208L190.177 348.633C190.177 348.633 206.946 346.6 212.997 371.625C213.967 375.785 214.316 380.065 214.033 384.327C213.813 388.1 214.326 394.743 218.624 403.34C225.501 417.094 223.938 448.668 209.871 451.794C195.804 454.92 190.802 453.357 190.802 453.357C190.802 453.357 192.678 510.564 200.805 517.129C208.933 523.694 180.082 522.131 180.082 522.131C180.082 522.131 155.165 523.381 142.348 525.257C129.531 527.133 93.5807 518.692 93.5807 518.692C93.5807 518.692 98.895 494.621 100.771 479.303C102.646 463.986 107.023 431.368 107.023 431.368L75.1368 388.178C75.1368 388.178 69.5098 362.075 89.2042 350.509C108.899 338.942 116.31 336.098 116.31 336.098C116.31 336.098 136.095 368.327 146.412 369.89C146.412 369.89 150.33 371.465 152.039 368.953Z" fill="#F59E0B"/>
<path opacity="0.1" d="M188.614 378.018C188.614 378.018 188.926 388.334 187.051 392.398C185.175 396.462 178.298 418.97 178.298 418.97H193.928C193.928 418.97 185.488 409.904 186.113 405.528C186.738 401.151 188.614 378.018 188.614 378.018Z" fill="black"/>
<path d="M142.348 455.858C142.348 455.858 176.865 447.417 180.082 440.227C183.299 433.037 192.167 416.947 192.167 416.947L188.523 412.04L171.733 425.222C171.733 425.222 151.726 441.165 142.348 442.728C132.969 444.291 142.348 455.858 142.348 455.858Z" fill="#FBBEBE"/>
<path opacity="0.05" d="M142.348 455.858C142.348 455.858 176.865 447.417 180.082 440.227C183.299 433.037 192.167 416.947 192.167 416.947L188.523 412.04L171.733 425.222C171.733 425.222 151.726 441.165 142.348 442.728C132.969 444.291 142.348 455.858 142.348 455.858Z" fill="black"/>
<path d="M112.493 415.22V433.949H115.504C130.377 433.948 145.005 437.734 158.011 444.949L163.652 448.082L165.171 448.926L174.859 427.098L165.795 418.972C165.795 418.972 165.631 418.99 165.331 419.014C163.113 419.229 153.523 420.031 149.458 418.657C145.599 417.349 140.802 413.19 129.431 416.097C123.832 417.527 119.049 423.806 113.614 421.846L112.493 415.22Z" fill="#FBBEBE"/>
<path opacity="0.1" d="M82.3268 381.144L76.0746 388.178V405.215C76.0746 405.215 81.3889 458.984 98.2698 464.923C115.151 470.863 145.285 461.485 145.285 461.485C145.285 461.485 153.068 440.853 149.427 439.602C145.786 438.352 117.248 430.814 117.248 430.814C117.248 430.814 117.652 399.276 111.399 389.897C111.399 389.897 115.463 360.512 101.396 359.887C87.3285 359.262 82.3268 381.144 82.3268 381.144Z" fill="black"/>
<path d="M81.3889 381.144L75.1367 388.178V405.215C75.1367 405.215 80.4511 458.984 97.332 464.923C114.213 470.863 144.347 461.485 144.347 461.485C144.347 461.485 152.13 440.853 148.489 439.602C144.848 438.352 116.31 430.814 116.31 430.814C116.31 430.814 116.714 399.276 110.462 389.897C110.462 389.897 114.525 360.512 100.458 359.887C86.3907 359.262 81.3889 381.144 81.3889 381.144Z" fill="#F59E0B"/>
<path opacity="0.1" d="M125.056 308.885C124.784 306.828 125.029 304.736 125.768 302.798C126.65 300.932 128.713 299.46 130.725 299.933C133.402 300.557 134.556 304.041 137.177 304.876C139.386 305.579 141.801 304.013 142.856 301.945C143.911 299.882 143.939 297.462 143.944 295.146C143.948 292.534 143.954 289.922 143.962 287.31C143.967 284.469 144.051 281.397 145.805 279.165C147.985 276.385 153.106 275.17 156.524 275.283C158.802 275.307 160.986 276.188 162.644 277.749C164.477 279.306 166.592 280.45 169.087 280.042C170.125 279.884 171.097 279.436 171.891 278.749C172.685 278.062 173.269 277.164 173.574 276.159C173.584 276.127 173.592 276.094 173.598 276.061C170.938 272.555 167.581 269.637 163.739 267.491C159.896 265.345 155.651 264.018 151.271 263.594C146.89 263.169 142.469 263.656 138.286 265.024C134.103 266.391 130.248 268.61 126.965 271.54C123.681 274.471 121.04 278.049 119.207 282.05C117.374 286.051 116.389 290.389 116.315 294.789C116.24 299.189 117.078 303.558 118.774 307.619C120.47 311.679 122.989 315.345 126.172 318.385C125.624 315.241 125.251 312.07 125.056 308.885Z" fill="black"/>
<path d="M169.087 279.105C170.126 278.946 171.098 278.498 171.892 277.811C172.686 277.123 173.27 276.226 173.576 275.221C173.839 274.212 173.77 273.135 174.067 272.136C174.797 269.68 177.419 268.399 179.176 266.534C182.699 262.797 182.47 256.649 179.977 252.16C177.964 248.536 174.06 245.477 169.976 246.185C167.448 246.624 165.261 248.426 162.7 248.588C160.235 248.744 157.977 247.363 155.73 246.338C150.309 243.885 144.217 243.344 138.45 244.804C136.676 245.157 135.033 245.986 133.695 247.202C132.786 248.344 131.939 249.534 131.159 250.767C128.243 254.481 123.027 255.206 118.381 256.049C113.735 256.892 108.477 258.726 106.95 263.194C105.938 266.156 106.92 269.374 107.501 272.45C107.693 273.081 107.649 273.76 107.377 274.361C106.653 275.56 104.838 275.058 103.467 275.346C100.831 275.899 100.154 279.295 100.057 281.987C99.9458 285.067 99.8621 288.149 99.8058 291.231C99.7307 292.382 99.8226 293.537 100.079 294.662C100.652 296.267 101.558 297.733 102.737 298.964L113.06 311.365C117.637 316.863 122.497 323.272 121.575 330.366C123.744 331.34 126.32 329.467 127.032 327.198C127.743 324.929 127.169 322.485 126.687 320.156C125.854 316.131 125.308 312.051 125.055 307.948C124.782 305.892 125.028 303.8 125.77 301.862C126.65 299.993 128.715 298.524 130.726 298.994C133.404 299.62 134.556 303.103 137.176 303.938C139.385 304.642 141.803 303.073 142.856 301.008C143.909 298.943 143.937 296.526 143.943 294.208L143.961 286.372C143.968 283.533 144.052 280.459 145.804 278.225C147.984 275.446 153.107 274.232 156.526 274.343C158.803 274.369 160.986 275.25 162.643 276.81C164.478 278.368 166.59 279.512 169.087 279.105Z" fill="#3F3D56"/>
<path opacity="0.1" d="M161.886 377.237L152.096 417.452C152.096 417.452 144.38 417.407 161.886 377.237Z" fill="black"/>
<path opacity="0.1" d="M128.437 370.516C128.437 370.516 141.253 391.506 136.252 413.21L133.864 413.384C133.864 413.384 138.127 403.34 128.437 370.516Z" fill="black"/>
<path opacity="0.1" d="M120.309 489.307C120.309 489.307 104.571 484.101 103.428 496.184C103.428 496.184 106.398 487.9 120.309 489.307Z" fill="black"/>
<path opacity="0.1" d="M165.793 419.908C165.793 419.908 168.919 441.79 163.292 450.543C163.292 450.543 174.738 455.233 190.802 454.295L192.678 419.908L165.793 419.908Z" fill="black"/>
<path opacity="0.1" d="M163.652 448.082L165.171 448.926L174.859 427.098L165.795 418.971H165.326C165.326 418.986 165.328 419 165.331 419.014C165.471 420.022 167.999 438.816 163.652 448.082Z" fill="black"/>
<path d="M165.793 418.97C165.793 418.97 168.919 440.853 163.292 449.606C163.292 449.606 174.738 454.295 190.802 453.357L201.743 418.97H165.793Z" fill="#F59E0B"/>
<path d="M190.832 792.073C191.014 793.632 191.709 795.086 192.808 796.208C193.907 797.329 195.347 798.053 196.903 798.266C205.393 799.534 225.84 795.768 231.004 798.225C237.569 801.353 263.514 799.163 264.766 796.04C264.942 795.414 264.993 794.76 264.916 794.114C264.839 793.469 264.635 792.845 264.316 792.279C263.428 790.373 261.961 788.796 260.124 787.773C259.526 787.433 258.896 787.153 258.243 786.938C253.357 785.306 244.124 781.846 241.634 778.221C241.634 778.221 230.13 768.154 226.846 762.71C226.229 761.64 225.358 760.739 224.31 760.086C223.261 759.433 222.068 759.048 220.836 758.967C218.097 758.844 215.047 760.222 213.8 766.222C213.8 766.222 198.804 774.779 194.743 767.277C194.743 767.277 194.119 785.802 191.63 788.954C191.625 788.958 191.62 788.968 191.615 788.972C191.287 789.412 191.048 789.912 190.914 790.444C190.78 790.976 190.752 791.53 190.832 792.073Z" fill="#F59E0B"/>
<path opacity="0.1" d="M190.832 792.073C191.014 793.632 191.709 795.086 192.808 796.208C193.907 797.329 195.347 798.053 196.903 798.266C205.393 799.534 225.84 795.768 231.004 798.225C237.569 801.353 263.514 799.163 264.766 796.04C264.942 795.414 264.993 794.76 264.916 794.114C264.839 793.469 264.635 792.845 264.316 792.279C263.428 790.373 261.961 788.796 260.124 787.773C255.894 790.577 246.502 793.325 225.846 790.099C206.142 787.023 196.389 791.007 191.629 788.954C191.625 788.958 191.62 788.968 191.615 788.972C191.287 789.412 191.048 789.912 190.914 790.444C190.78 790.976 190.752 791.53 190.832 792.073V792.073Z" fill="black"/>
<g opacity="0.1">
<path opacity="0.1" d="M107.53 272.889C107.521 272.839 107.513 272.789 107.504 272.739C107.061 270.397 106.388 267.972 106.538 265.641C106.739 267.556 107.062 269.458 107.504 271.333C107.633 271.842 107.642 272.375 107.53 272.889V272.889Z" fill="black"/>
<path opacity="0.1" d="M125.772 302.151C125.279 303.278 125.018 304.493 125.005 305.724C124.863 304.027 125.126 302.32 125.772 300.745C126.652 298.876 128.717 297.406 130.728 297.877C133.406 298.503 134.558 301.985 137.178 302.82C139.387 303.524 141.805 301.956 142.858 299.891C143.911 297.825 143.939 295.408 143.945 293.09C143.951 290.478 143.957 287.866 143.963 285.254C143.97 282.415 144.054 279.342 145.806 277.108C147.986 274.328 153.109 273.114 156.528 273.225C158.805 273.252 160.988 274.132 162.645 275.693C164.48 277.25 166.592 278.394 169.09 277.987C170.128 277.829 171.1 277.38 171.894 276.693C172.689 276.006 173.272 275.108 173.578 274.104C173.841 273.094 173.772 272.018 174.069 271.018C174.799 268.562 177.421 267.281 179.179 265.417C180.819 263.601 181.755 261.256 181.815 258.81C181.944 260.254 181.777 261.711 181.324 263.089C180.87 264.467 180.14 265.738 179.179 266.824C177.421 268.688 174.799 269.969 174.069 272.425C173.772 273.424 173.841 274.501 173.578 275.51C173.272 276.515 172.689 277.413 171.894 278.1C171.1 278.787 170.128 279.236 169.09 279.394C166.592 279.801 164.48 278.657 162.645 277.099C160.988 275.539 158.805 274.658 156.528 274.632C153.109 274.521 147.986 275.735 145.806 278.514C144.054 280.748 143.97 283.822 143.963 286.661C143.957 289.273 143.951 291.885 143.945 294.497C143.939 296.815 143.911 299.232 142.858 301.297C141.805 303.363 139.387 304.931 137.178 304.227C134.558 303.392 133.406 299.91 130.728 299.283C128.717 298.813 126.652 300.283 125.772 302.151Z" fill="black"/>
<path opacity="0.1" d="M100.081 293.544C100.655 295.149 101.56 296.615 102.739 297.847C106.18 301.98 109.621 306.114 113.062 310.248C117.407 315.468 122.005 321.51 121.67 328.179C121.356 322.065 117.1 316.505 113.062 311.654C109.621 307.521 106.18 303.387 102.739 299.253C101.56 298.022 100.655 296.556 100.081 294.951C99.8248 293.827 99.7329 292.672 99.8079 291.521C99.8173 292.204 99.9089 292.883 100.081 293.544V293.544Z" fill="black"/>
<path opacity="0.1" d="M127.034 326.081C127.201 325.537 127.305 324.976 127.343 324.408C127.432 325.445 127.327 326.489 127.034 327.487C126.323 329.756 123.746 331.629 121.577 330.656C121.636 330.202 121.671 329.745 121.684 329.288C123.831 330.155 126.334 328.313 127.034 326.081Z" fill="black"/>
</g>
<path opacity="0.1" d="M228.908 765.539C228.908 765.539 225.641 771.288 213.8 766.222Z" fill="black"/>
<path opacity="0.1" d="M130.808 765.924C130.808 765.924 120.593 777.947 107.726 769.867Z" fill="black"/>
<path opacity="0.1" d="M101.085 623.727C101.085 623.727 108.3 628.234 108.534 630.813C108.769 633.392 104.81 628.938 104.81 628.938L101.085 623.727Z" fill="black"/>
<path opacity="0.1" d="M98.2374 658.292C100.747 660.381 103.867 661.599 107.128 661.762C112.52 661.996 112.071 669.03 108.544 666.92C105.018 664.81 98.2374 658.292 98.2374 658.292Z" fill="black"/>
<path opacity="0.1" d="M96.8644 662.803C96.8644 662.803 100.328 679.815 103.142 676.532Z" fill="black"/>
<path d="M13.7096 645.652C16.7389 646.753 19.9825 647.136 23.1849 646.77C26.3873 646.404 29.4608 645.299 32.1633 643.542C34.8658 641.785 37.1233 639.425 38.758 636.647C40.3926 633.869 41.3597 630.749 41.583 627.534C41.8062 624.318 41.2796 621.095 40.0446 618.118C38.8096 615.14 36.8999 612.491 34.4662 610.377C32.0324 608.264 29.1411 606.745 26.0201 605.94C22.899 605.134 19.6336 605.065 16.4812 605.737L17.0021 616.449L11.934 607.269C6.95989 609.606 3.11718 613.822 1.25032 618.991C0.587324 620.802 0.184275 622.697 0.0531921 624.621C-0.266741 629.135 0.893347 633.63 3.35766 637.425C5.82197 641.22 9.45619 644.108 13.7096 645.652V645.652Z" fill="#F59E0B"/>
<path d="M38.787 769.896C36.9979 760.785 44.7503 752.709 52.4079 747.459C60.0654 742.209 69.0128 737.051 71.6256 728.142C75.3806 715.338 64.1956 703.612 55.49 693.501C49.0312 685.996 43.4847 677.753 38.9664 668.943C37.1553 665.411 35.4908 661.718 35.0141 657.777C34.3277 652.101 36.1511 646.454 37.9881 641.04C44.1075 623.006 50.6504 605.122 57.6165 587.39" stroke="#3F3D56" stroke-miterlimit="10"/>
<path d="M14.5667 642.894C17.596 643.996 20.8397 644.378 24.042 644.012C27.2444 643.646 30.318 642.541 33.0204 640.784C35.7229 639.027 37.9805 636.667 39.6151 633.889C41.2497 631.111 42.2168 627.991 42.4401 624.776C42.6634 621.56 42.1367 618.337 40.9017 615.36C39.6667 612.382 37.7571 609.733 35.3233 607.619C32.8895 605.506 29.9982 603.987 26.8772 603.182C23.7561 602.376 20.4907 602.307 17.3383 602.979L17.8593 613.691L12.7911 604.511C7.81701 606.848 3.9743 611.064 2.10744 616.233C1.44444 618.044 1.04139 619.94 0.910308 621.863C0.590379 626.377 1.75047 630.872 4.21478 634.667C6.67909 638.462 10.3133 641.35 14.5667 642.894V642.894Z" stroke="#3F3D56" stroke-miterlimit="10"/>
<path d="M36.2431 583.691C37.4319 580.411 39.4272 577.482 42.0451 575.176C44.663 572.87 47.8193 571.259 51.2231 570.493L52.9367 580.677L56.1137 569.981C60.5248 570.047 64.801 571.512 68.3249 574.166C71.8488 576.82 74.4381 580.526 75.7188 584.747C76.9996 588.969 76.9056 593.488 75.4504 597.653C73.9952 601.818 71.2542 605.412 67.623 607.918C63.9917 610.423 59.6583 611.709 55.2483 611.591C50.8382 611.473 46.5798 609.957 43.0878 607.261C39.5959 604.565 37.051 600.829 35.8207 596.592C34.5904 592.356 34.7383 587.838 36.2431 583.691H36.2431Z" fill="#F59E0B"/>
<path d="M37.386 580.013C38.5748 576.733 40.5701 573.805 43.1879 571.499C45.8058 569.192 48.9621 567.582 52.3659 566.816L54.0795 577L57.2565 566.304C61.6676 566.369 65.9439 567.835 69.4678 570.489C72.9917 573.143 75.5809 576.849 76.8617 581.07C78.1424 585.292 78.0485 589.811 76.5933 593.976C75.1381 598.141 72.397 601.735 68.7658 604.24C65.1346 606.746 60.8011 608.032 56.3911 607.914C51.9811 607.796 47.7226 606.28 44.2307 603.584C40.7387 600.888 38.1938 597.152 36.9635 592.915C35.7332 588.679 35.8812 584.161 37.3859 580.013H37.386Z" stroke="#F59E0B" stroke-miterlimit="10"/>
<path d="M51.8365 693.707C56.6406 695.45 61.918 695.364 66.6628 693.465C71.4076 691.567 75.2879 687.989 77.5643 683.414C79.8406 678.838 80.3537 673.585 79.0058 668.655C77.6579 663.726 74.5433 659.465 70.2555 656.684L67.8143 664.903L66.0833 654.6C66.0662 654.592 66.0485 654.585 66.0303 654.58C63.4607 653.646 60.7323 653.227 58.001 653.348C55.2697 653.469 52.589 654.127 50.112 655.285C47.6351 656.442 45.4104 658.076 43.5652 660.093C41.72 662.111 40.2904 664.472 39.3581 667.042C38.4257 669.612 38.0089 672.341 38.1315 675.072C38.2541 677.803 38.9137 680.484 40.0725 682.96C41.2313 685.436 42.8667 687.66 44.8852 689.504C46.9038 691.348 49.2658 692.776 51.8365 693.707H51.8365Z" fill="#F59E0B"/>
<path d="M52.8267 689.982C57.6309 691.725 62.9083 691.639 67.653 689.74C72.3978 687.842 76.2781 684.264 78.5545 679.689C80.8308 675.113 81.3439 669.86 79.996 664.931C78.6481 660.001 75.5335 655.74 71.2457 652.96L68.8045 661.179L67.0735 650.875C67.0564 650.867 67.0386 650.86 67.0205 650.855C64.4509 649.921 61.7225 649.503 58.9912 649.624C56.2599 649.745 53.5791 650.403 51.1022 651.56C48.6252 652.717 46.4006 654.351 44.5554 656.369C42.7102 658.386 41.2806 660.747 40.3482 663.317C39.4159 665.888 38.9991 668.616 39.1217 671.347C39.2443 674.079 39.9038 676.759 41.0627 679.235C42.2215 681.712 43.8569 683.935 45.8754 685.779C47.8939 687.623 50.256 689.051 52.8267 689.982H52.8267Z" stroke="#3F3D56" stroke-miterlimit="10"/>
<path d="M30.1696 728.27C30.9956 732.97 33.4127 737.243 37.0154 740.373C40.6181 743.502 45.1873 745.298 49.9568 745.459C54.7264 745.619 59.4061 744.135 63.2112 741.255C67.0162 738.375 69.7153 734.274 70.8557 729.64C71.996 725.006 71.5083 720.121 69.4744 715.804C67.4405 711.486 63.984 708 59.6846 705.929C55.3853 703.858 50.5045 703.328 45.8608 704.428C41.2172 705.529 37.0931 708.192 34.1802 711.972L43.4529 725.929L30.7829 718.521C29.8005 721.675 29.5902 725.018 30.1696 728.27V728.27Z" fill="#F59E0B"/>
<path d="M31.0267 725.512C31.8527 730.212 34.2698 734.485 37.8725 737.615C41.4752 740.744 46.0444 742.54 50.8139 742.701C55.5835 742.861 60.2632 741.377 64.0683 738.497C67.8734 735.617 70.5724 731.516 71.7128 726.882C72.8531 722.248 72.3655 717.363 70.3315 713.046C68.2976 708.729 64.8411 705.242 60.5417 703.171C56.2424 701.1 51.3616 700.57 46.718 701.67C42.0743 702.771 37.9502 705.434 35.0373 709.214L44.31 723.171L31.64 715.763C30.6577 718.917 30.4473 722.26 31.0267 725.512V725.512Z" stroke="#3F3D56" stroke-miterlimit="10"/>
<path d="M9.89154 782.236C9.89154 782.236 28.257 775.038 33.7919 771.097C39.3268 767.156 62.0426 762.45 63.4157 768.771C64.7887 775.092 91.0155 800.208 70.281 800.376C49.5465 800.543 22.1032 803.778 16.579 800.413C11.0548 797.048 9.89154 782.236 9.89154 782.236Z" fill="#656380"/>
<path opacity="0.2" d="M70.651 798.175C49.9165 798.343 22.4733 801.577 16.949 798.212C12.742 795.65 11.0656 786.454 10.5046 782.212C10.1162 782.228 9.89154 782.236 9.89154 782.236C9.89154 782.236 11.0548 797.048 16.579 800.413C22.1033 803.778 49.5465 800.543 70.281 800.376C76.2662 800.327 78.3336 798.198 78.2201 795.044C77.3886 796.95 75.1059 798.139 70.651 798.175Z" fill="black"/>
<path d="M50.8161 799.555H322.816" stroke="#3F3D56" stroke-miterlimit="10"/>
</g>
<defs>
<linearGradient id="paint0_linear" x1="216.483" y1="765.547" x2="216.483" y2="765.098" gradientUnits="userSpaceOnUse">
<stop stop-color="#808080" stop-opacity="0.25"/>
<stop offset="0.53514" stop-color="#808080" stop-opacity="0.12"/>
<stop offset="1" stop-color="#808080" stop-opacity="0.1"/>
</linearGradient>
<clipPath id="clip0">
<rect width="977.478" height="801.936" fill="white"/>
</clipPath>
</defs>
</svg>
